<?xml version="1.0" encoding="UTF-8" standalone="no"?>
<!DOCTYPE svg PUBLIC "-//W3C//DTD SVG 1.1//EN" "http://www.w3.org/Graphics/SVG/1.1/DTD/svg11.dtd">
<svg width="100%" height="100%" viewBox="0 0 1691 1673" version="1.1" xmlns="http://www.w3.org/2000/svg" xmlns:xlink="http://www.w3.org/1999/xlink" xml:space="preserve" xmlns:serif="http://www.serif.com/" style="fill-rule:evenodd;clip-rule:evenodd;stroke-linejoin:round;stroke-miterlimit:2;">
    <g transform="matrix(1,0,0,1,-1010.78,-339.107)">
        <g id="blocked">
            <g id="right-leg" serif:id="right leg" transform="matrix(0.999866,-0.0163923,0.0163923,0.999866,-20.5717,57.8877)">
                <path d="M2038,1071.88C2073.05,1061.29 2101.32,1047.13 2127.91,1029.63C2155.58,1011.43 2177.41,988.212 2200.72,963.722C2220.95,942.465 2233.82,915.092 2247.16,889.333C2258.7,867.036 2269.3,842.727 2278.47,818.72C2284.28,803.491 2297.7,790.818 2302.11,774.883C2307.2,756.496 2305.26,717.367 2305.22,721.421C2305.22,706.974 2337.2,658.077 2345.61,644.582C2352.67,633.246 2373.82,592.959 2379.37,585.437C2397.4,561.011 2423.45,540.896 2444.27,518.714C2470.77,490.488 2484.85,471.392 2523.55,459.662C2523.55,459.662 2571.52,445.363 2578.02,442.178C2599.48,431.669 2618.33,416.242 2638.76,403.986C2661.73,390.201 2709.04,362.611 2708.85,360.565C2718.84,352.407 2722.31,321.03 2702.14,326.199C2700.1,326.725 2689.47,334.225 2686,340.635C2686,340.635 2633.58,346.904 2605.87,351.358C2574.03,356.475 2529.8,346.437 2502.24,366.93C2490.06,375.986 2484.43,390.609 2477.39,403.569C2472.24,413.032 2468.64,436.86 2468.14,437.252C2435.02,437.252 2408.17,465.407 2382.51,481.583C2352.85,500.285 2320.61,514.81 2292.03,535.158C2272.95,548.747 2253.8,559.14 2235.9,574.367C2218.98,588.773 2201.26,611.015 2188.71,629.616C2172.21,654.057 2159.05,715.763 2156.77,718.655C2152.87,723.609 2117.15,745.142 2096.03,765.675C2049.76,810.665 2004.65,857.742 1952.47,896.355C1942.92,903.42 1932.92,912.188 1922.54,919.392C1915.36,924.375 1867.17,951.972 1838.95,968.648C1833.53,971.854 1831.09,973.748 1819.95,981.685" style="fill:rgb(130,75,63);"/>
            </g>
            <g id="right-leg1" serif:id="right leg" transform="matrix(0.999866,-0.0163923,0.0163923,0.999866,-20.5717,57.8877)">
                <path d="M2058.87,1092.77C2086.45,1065.55 2109.3,1052.98 2132.25,1032.06C2156.72,1009.75 2177.41,988.212 2200.72,963.722C2220.95,942.465 2233.82,915.092 2247.16,889.333L2096.03,765.675C2049.76,810.665 2004.65,857.742 1952.47,896.355C1942.92,903.42 1932.92,912.188 1922.54,919.392C1915.36,924.375 1867.17,951.972 1838.95,968.648C1833.53,971.854 1831.09,973.748 1819.95,981.685" style="fill:url(#_Linear1);"/>
            </g>
            <g id="arm-back" serif:id="arm back" transform="matrix(0.999866,-0.0163923,0.0163923,0.999866,-6.80894,47.7853)">
                <path d="M1137.62,1896.9C1137.62,1896.9 1117.53,1905.11 1115.94,1905.7C1114.61,1906.2 1112.59,1907.24 1111.16,1907.3C1107.08,1907.45 1101.75,1908.36 1097.88,1908.91C1091.5,1909.81 1086.94,1910.32 1080.5,1910.65C1070.11,1911.19 1060.12,1909.08 1049.94,1907.3C1045.27,1906.48 1033.45,1907.08 1034.72,1899.77C1037.41,1884.3 1059.87,1881.8 1072.4,1880.05C1085.6,1878.2 1100.28,1879.75 1112.99,1875.42C1119.34,1873.25 1125.16,1868.63 1131.07,1865.47C1137.55,1862.01 1144.88,1860.61 1151.08,1856.44C1166.37,1846.15 1193.69,1825.88 1208,1814.26" style="fill:rgb(113,65,55);"/>
            </g>
            <g id="body" transform="matrix(0.999866,-0.0163923,0.0163923,0.999866,-18.6452,47.2921)">
                <path d="M1466.94,1513.11L1464.38,1551.06L1463.5,1604.81L1425.05,1633.28L1358.42,1666.22L1314.72,1744.38C1314.72,1744.38 1317.88,1811.53 1323.91,1827.57C1326.08,1833.35 1328.72,1839.7 1332.14,1844.27C1338.65,1852.96 1350.06,1865.26 1361.87,1868.16C1390.2,1875.11 1417.56,1869.21 1443.46,1858.63C1453.97,1854.34 1454.98,1836.25 1463.17,1828.06C1468.9,1822.33 1492.93,1820.1 1496.78,1812.93C1501.18,1804.74 1492.82,1788.91 1496.78,1780.54C1502.34,1768.82 1518.14,1767.81 1517.86,1753.87C1517.76,1748.85 1515.24,1744.31 1513.45,1739.75C1505.28,1718.92 1481.05,1696.76 1491.38,1672.18C1498.26,1655.79 1509,1638.96 1527.02,1633.86C1527.02,1633.86 1570.82,1623.54 1592.72,1619.12C1625.24,1612.55 1653.51,1606.7 1684.35,1598.36C1699.76,1594.19 1714.03,1588.3 1728.25,1579.54C1736.15,1574.66 1746.96,1564.89 1752.81,1558.4C1760.97,1549.32 1763.44,1538.24 1767.22,1527.38C1769.64,1520.39 1774.29,1496.56 1775.83,1489.4C1778.81,1475.56 1782.22,1461.82 1784.89,1447.92C1790.45,1419.02 1793.5,1389.3 1802.85,1361.19C1816.05,1321.53 1839.95,1289.05 1865.41,1256.54C1872.48,1247.51 1886.91,1229.68 1887.29,1229.17C1893.83,1263.13 1908.28,1298.58 1923.29,1331.17C1928.58,1342.64 1945.58,1379.81 1953.76,1389.16C1967.48,1404.86 1989.33,1425.9 2001.41,1440.13C2011.46,1451.97 2043.2,1472.66 2054.77,1482.82C2063.76,1490.72 2101.41,1520.61 2111.98,1524.59C2121.14,1528.04 2128.63,1531.54 2137.92,1535.75C2137.92,1535.75 2139.68,1544.38 2139.83,1545.15C2141.54,1554.04 2145.97,1566.47 2150.14,1574.66C2153.85,1581.93 2162.83,1591.23 2169.81,1595.41C2184.87,1604.42 2191.39,1603.86 2205.88,1613.53C2214.46,1619.26 2224.93,1627.3 2231.12,1636.19C2240.21,1649.24 2252.29,1659.59 2264.24,1669.91C2273.06,1677.53 2282.88,1684.05 2291.21,1692.23C2301.97,1702.78 2347.36,1748.65 2359.16,1761.5C2371.24,1774.67 2408.98,1809.52 2415.91,1814.31C2428.24,1822.86 2463.86,1858.84 2475.26,1868.73C2485.81,1877.89 2505.99,1896.01 2506.62,1895.78C2498.43,1903.2 2462.61,1927.99 2455.71,1933.58C2449.31,1938.76 2414.5,1958.46 2405.94,1966.27C2405.44,1966.73 2399.92,1970.28 2397.22,1972.13C2389.25,1968.07 2375.95,1974.13 2368.48,1976.54C2365.26,1977.58 2360.92,1978.52 2358.85,1981.54C2354.39,1988.07 2362.96,1997.76 2368.25,2000.72C2378.97,2006.7 2392.05,2000.25 2403.49,2000.72C2403.49,2000.72 2417.53,2001.84 2423.12,1999.8C2432.26,1996.48 2441.3,1992.84 2450.32,1989.23C2464.77,1983.44 2479.24,1977.52 2493.6,1971.49C2500.62,1968.55 2510.62,1964.22 2517.95,1962.26C2530.51,1958.89 2568.06,1946.04 2578.28,1941.45C2597.5,1932.83 2616.53,1901.08 2604.33,1880.35C2598.67,1870.73 2587.03,1859.95 2575.88,1858.02C2565.13,1856.16 2561.31,1853.18 2551.83,1847.7C2548.01,1845.49 2521.48,1827.14 2512.39,1811.8C2505.65,1800.42 2498.22,1790.75 2494.7,1777.8C2490.97,1764.13 2484.46,1751.22 2480.37,1737.73C2473.66,1715.56 2464.67,1694.42 2452.61,1674.8C2447.92,1667.18 2425.51,1625.12 2417.62,1612.22C2411.5,1602.2 2402.86,1594.24 2394.79,1585.89C2373.99,1564.39 2310.36,1538.09 2310.36,1538.09C2309.69,1536.73 2306.36,1501.64 2304.29,1494.06C2300.58,1480.46 2293.73,1464.6 2288.8,1451.39C2281.1,1430.73 2275.03,1412.27 2266.02,1392.13C2238.6,1330.85 2193.6,1276.65 2155.93,1221.92C2139.64,1198.26 2083.12,1120.13 2068.91,1104.88C2053.1,1087.91 2030.38,1064.88 2019.24,1052.31C2009.53,1041.35 1998.22,1032.33 1989.58,1024.58C1990.87,1025.57 1980.94,1017.16 1977.14,1013.74C1966.15,1003.86 1952.41,996.999 1938.52,992.068C1899.75,978.312 1832.68,978.002 1804.35,989.491C1785.84,997.002 1767.53,1008.36 1754.7,1021.19C1740.77,1035.12 1729.08,1049.25 1716.94,1065.2C1698.8,1089.04 1670.68,1170.25 1669.52,1172.93C1662.38,1189.36 1657,1205.25 1651.27,1222.12C1644.22,1242.89 1607.06,1303.14 1598.1,1314.07C1579.76,1336.44 1556.67,1372.43 1547.22,1385.61C1545.27,1388.34 1525.89,1409.62 1519.17,1418.64C1494.84,1451.33 1470.91,1471.39 1466.94,1513.11Z" style="fill:rgb(113,65,55);"/>
            </g>
            <g id="body1" serif:id="body" transform="matrix(0.999866,-0.0163923,0.0163923,0.999866,-18.6452,47.2921)">
                <path d="M1651.27,1222.12C1644.22,1242.89 1833.74,1299.56 1837.75,1293.72C1846.42,1281.07 1855.8,1268.81 1865.41,1256.54C1872.48,1247.51 1886.91,1229.68 1887.29,1229.17C1893.83,1263.13 1908.28,1298.58 1923.29,1331.17C1928.58,1342.64 1945.58,1379.81 1953.76,1389.16C1967.48,1404.86 1989.33,1425.9 2001.41,1440.13C2011.46,1451.97 2043.2,1472.66 2054.77,1482.82C2059.55,1487.01 2072.41,1497.42 2085,1506.84C2096.12,1515.16 2271.86,1405.19 2266.02,1392.13C2238.6,1330.85 2193.6,1276.65 2155.93,1221.92C2139.64,1198.26 2083.12,1120.13 2068.91,1104.88C2053.1,1087.91 2030.38,1064.88 2019.24,1052.31C2009.53,1041.35 1998.22,1032.33 1989.58,1024.58C1990.87,1025.57 1980.94,1017.16 1977.14,1013.74C1966.15,1003.86 1952.41,996.999 1938.52,992.068C1899.75,978.312 1832.68,978.002 1804.35,989.491C1785.84,997.002 1767.53,1008.36 1754.7,1021.19C1740.77,1035.12 1729.08,1049.25 1716.94,1065.2C1698.8,1089.04 1670.68,1170.25 1669.52,1172.93C1662.38,1189.36 1657,1205.25 1651.27,1222.12Z" style="fill:rgb(57,144,115);"/>
            </g>
            <g id="body2" serif:id="body" transform="matrix(0.999866,-0.0163923,0.0163923,0.999866,-18.6452,47.2921)">
                <path d="M1598.1,1314.07C1579.76,1336.44 1556.67,1372.43 1547.22,1385.61C1545.27,1388.34 1518.7,1415.74 1519.17,1418.64C1524.11,1448.91 1576.57,1466.96 1582.5,1503.41C1585.52,1522 1589.65,1542.3 1569.94,1569C1555.75,1588.21 1530.6,1610.83 1493.89,1643.44C1493.89,1643.44 1570.82,1623.54 1592.72,1619.12C1625.24,1612.55 1653.51,1606.7 1684.35,1598.36C1699.76,1594.19 1714.03,1588.3 1728.25,1579.54C1736.15,1574.66 1746.96,1564.89 1752.81,1558.4C1760.97,1549.32 1763.44,1538.24 1767.22,1527.38C1769.64,1520.39 1774.29,1496.56 1775.83,1489.4C1778.81,1475.56 1782.22,1461.82 1784.89,1447.92C1787.67,1433.44 1789.83,1418.76 1792.46,1404.17C1795.09,1389.65 1598.1,1314.07 1598.1,1314.07Z" style="fill:rgb(57,144,115);"/>
            </g>
            <g id="body3" serif:id="body" transform="matrix(0.999866,-0.0163923,0.0163923,0.999866,-18.6452,47.2921)">
                <path d="M1358.42,1666.22L1314.72,1744.38C1314.72,1744.38 1307.4,1807.2 1313.42,1823.24C1315.59,1829.02 1315.64,1837.44 1323.58,1847.58C1329.15,1854.71 1350.06,1865.26 1361.87,1868.16C1390.2,1875.11 1417.56,1869.21 1443.46,1858.63C1443.46,1858.63 1416.91,1845.68 1402.24,1824.7C1393.21,1811.78 1393.45,1789.03 1392.98,1784.55C1391.74,1772.77 1442.68,1725.82 1436.66,1706.42C1430.63,1687.02 1358.42,1666.22 1358.42,1666.22Z" style="fill:rgb(49,49,49);"/>
            </g>
            <g transform="matrix(0.991304,1.9082e-18,0,0.983499,27.6431,44.4834)">
                <ellipse cx="1271.86" cy="1767.84" rx="38.838" ry="39.146" style="fill:rgb(49,49,49);"/>
            </g>
            <g id="arm-front" serif:id="arm front" transform="matrix(1.10554,-0.0181248,0.0179477,1.09474,-127.144,-139.251)">
                <path d="M1250.22,1783.8C1235.31,1792.34 1224.24,1800.49 1210.76,1811.11C1204.36,1816.15 1183.28,1839.39 1178.93,1845.75C1169.4,1859.7 1159.6,1874.12 1148.33,1886.74C1141.63,1894.24 1106.53,1924.12 1095.3,1932.25C1092.99,1933.92 1087.76,1939.25 1084.71,1939.25C1084.71,1939.25 1059.56,1939.7 1046.62,1941.07C1036.36,1942.16 1025.97,1942.18 1016.26,1945.98C1011.42,1947.87 1006.47,1949.45 1001.64,1951.41C999.704,1952.19 997.362,1953.37 997.563,1955.84C998.911,1972.47 1022.52,1969.96 1033.65,1971.81C1039.84,1972.84 1046.17,1973.21 1052.27,1974.74C1070.2,1979.22 1086.63,1980.41 1105.38,1980.04C1109.03,1979.96 1136.5,1977.43 1141.38,1975.6C1148.96,1972.76 1151.46,1965.42 1152.84,1958.1C1153.64,1953.81 1153.96,1948.63 1157.88,1945.89C1161.46,1943.4 1182.74,1929.19 1186.59,1927.18C1196.06,1922.22 1248.28,1878.56 1254.34,1872.99C1265.23,1862.97 1279.19,1856.73 1290.54,1847.18C1290.54,1847.18 1303.5,1839.97 1306.75,1837.3C1318.17,1827.91 1332.87,1802.6 1332.99,1803.47C1333.84,1801.77 1338.26,1798.26 1339.81,1797.33C1344.84,1794.28 1417.85,1725.22 1427.09,1716.41C1450,1694.56 1466.7,1673.73 1479.92,1645.48C1485.34,1633.89 1496.27,1618.43 1501.07,1606.54C1504.06,1599.14 1519.81,1561.18 1516.63,1547C1513,1530.85 1496.03,1525.88 1481.83,1527.94C1451.32,1532.35 1436.27,1546.42 1413.29,1564.42C1405.15,1570.8 1396.45,1576.81 1388.7,1583.64C1379.24,1591.98 1341.91,1623.94 1334.38,1632.75C1326.19,1642.34 1297.36,1681.12 1290.77,1690.7C1278.5,1708.56 1271.04,1729.3 1263.33,1749.41C1259,1760.69 1253.3,1772.09 1250.22,1783.8Z" style="fill:url(#_Linear2);"/>
            </g>
        </g>
    </g>
    <defs>
        <linearGradient id="_Linear1" x1="0" y1="0" x2="1" y2="0" gradientUnits="userSpaceOnUse" gradientTransform="matrix(427.212,0,0,306.208,1819.95,918.779)"><stop offset="0" style="stop-color:rgb(57,142,114);stop-opacity:1"/><stop offset="0.49" style="stop-color:rgb(59,148,118);stop-opacity:1"/><stop offset="1" style="stop-color:rgb(65,164,131);stop-opacity:1"/></linearGradient>
        <linearGradient id="_Linear2" x1="0" y1="0" x2="1" y2="0" gradientUnits="userSpaceOnUse" gradientTransform="matrix(519.499,0,0,452.602,997.551,1753.8)"><stop offset="0" style="stop-color:rgb(96,55,47);stop-opacity:1"/><stop offset="0.64" style="stop-color:rgb(99,57,48);stop-opacity:1"/><stop offset="1" style="stop-color:rgb(114,65,55);stop-opacity:1"/></linearGradient>
    </defs>
</svg>
