<?xml version="1.0" encoding="UTF-8" standalone="no"?>
<!DOCTYPE svg PUBLIC "-//W3C//DTD SVG 1.1//EN" "http://www.w3.org/Graphics/SVG/1.1/DTD/svg11.dtd">
<svg width="100%" height="100%" viewBox="0 0 372 387" version="1.1" xmlns="http://www.w3.org/2000/svg" xmlns:xlink="http://www.w3.org/1999/xlink" xml:space="preserve" xmlns:serif="http://www.serif.com/" style="fill-rule:evenodd;clip-rule:evenodd;stroke-linecap:round;stroke-linejoin:round;stroke-miterlimit:1.5;">
    <g transform="matrix(1,0,0,1,-78.1128,-31.006)">
        <g id="the-grove" serif:id="the grove">
            <ellipse cx="263.989" cy="350.411" rx="183.376" ry="64.272" style="fill:rgb(220,204,181);stroke:rgb(54,69,79);stroke-width:5px;"/>
            <g transform="matrix(0.707339,0,0,0.707339,309.506,308.482)">
                <path d="M57.572,35.786C62.122,28.216 69.795,23.24 78.486,23.24C87.933,23.24 96.176,29.118 100.516,37.816C101.985,37.269 103.582,36.969 105.253,36.969C112.461,36.969 118.313,42.562 118.313,49.451C118.313,51.265 117.908,52.989 117.179,54.544C122.769,59.276 126.319,66.342 126.319,74.231C126.319,88.46 114.767,100.012 100.538,100.012L46.07,100.012C31.841,100.012 20.288,88.46 20.288,74.231C20.288,66.414 23.774,59.406 29.275,54.676C29.115,53.643 29.032,52.581 29.032,51.499C29.032,40.828 37.113,32.164 47.066,32.164C50.985,32.164 54.613,33.507 57.572,35.786Z" style="fill:rgb(110,192,158);stroke:rgb(54,69,79);stroke-width:7.07px;"/>
            </g>
            <g id="tree-1" serif:id="tree 1" transform="matrix(1,0,0,1,-224.877,-10.9715)">
                <g transform="matrix(1,0,0,1,243.329,-14.8734)">
                    <circle cx="126.861" cy="229.723" r="64.699" style="fill:rgb(110,192,158);stroke:rgb(54,69,79);stroke-width:5px;"/>
                </g>
                <g transform="matrix(1,0,0,1,32.7215,20.8228)">
                    <path d="M341.781,333.093L341.781,193.878L341.781,241.473L309.655,214.701L341.781,241.473L341.781,221.84L362.604,203.397" style="fill:none;stroke:rgb(54,69,79);stroke-width:5px;"/>
                </g>
            </g>
            <g id="tree-two" serif:id="tree two" transform="matrix(1,0,0,1,-32.9232,-11.341)">
                <g transform="matrix(0.772806,0,0,0.772806,259.657,23.214)">
                    <circle cx="126.861" cy="229.723" r="64.699" style="fill:rgb(110,192,158);stroke:rgb(54,69,79);stroke-width:6.47px;"/>
                </g>
                <g transform="matrix(1.35241,0,0,1.35241,99.8624,-178.333)">
                    <circle cx="126.861" cy="229.723" r="64.699" style="fill:rgb(57,144,115);stroke:rgb(54,69,79);stroke-width:3.7px;"/>
                </g>
                <path d="M272.769,364.03L272.769,91.549L272.769,262.296L353.085,206.372L272.769,262.296L272.769,156.397L219.819,127.246L272.769,156.397L272.769,127.246L298.351,108.803" style="fill:none;stroke:rgb(54,69,79);stroke-width:5px;"/>
            </g>
            <g id="tree-3" serif:id="tree 3" transform="matrix(-1,0,0,1,526.184,47.9807)">
                <g transform="matrix(1,0,0,1,16.6582,-27.962)">
                    <circle cx="126.861" cy="229.723" r="64.699" style="fill:rgb(57,144,115);stroke:rgb(54,69,79);stroke-width:5px;"/>
                </g>
                <g transform="matrix(1,0,0,1,-193.949,7.73416)">
                    <path d="M341.781,333.093L341.781,193.878L341.781,241.473L309.655,214.701L341.781,241.473L341.781,221.84L362.604,203.397" style="fill:none;stroke:rgb(54,69,79);stroke-width:5px;"/>
                </g>
            </g>
            <g transform="matrix(0.85,0,0,0.85,10.9953,72.7839)">
                <path d="M138.741,316.302C138.733,316.061 138.73,315.816 138.73,315.571C138.73,302.854 149.194,292.53 162.084,292.53C168.334,292.53 174.014,294.957 178.206,298.907C180.641,298.187 183.254,297.796 185.971,297.796C198.258,297.796 208.398,305.785 209.789,316.064C218.382,318.757 224.623,326.786 224.623,336.26C224.623,347.939 215.142,357.42 203.463,357.42L145.783,357.42C134.104,357.42 124.623,347.939 124.623,336.26C124.623,327.051 130.519,319.207 138.741,316.302Z" style="fill:rgb(57,144,115);stroke:rgb(54,69,79);stroke-width:5.88px;"/>
            </g>
        </g>
    </g>
</svg>
